<svg class="icon" viewBox="0 0 1024 1024" xmlns="http://www.w3.org/2000/svg" width="400" height="400"><path d="M943.616 263.049a120.388 120.388 0 0 0 46.25-94.891A120.695 120.695 0 0 0 869.172 47.462a120.422 120.422 0 0 0-94.617 45.893 507.75 507.75 0 0 1 169.062 169.694zm-864.188-.734A507.563 507.563 0 0 1 248.986 92.757a120.422 120.422 0 0 0-94.157-45.295A120.695 120.695 0 0 0 34.133 168.158a120.354 120.354 0 0 0 45.295 94.157zm763.734 547.788a435.968 435.968 0 0 0 106-285.457c0-241.834-196.044-437.862-437.862-437.862-241.834 0-437.862 196.045-437.862 437.862a435.985 435.985 0 0 0 106.65 286.208L71.901 919.04a33.673 33.673 0 1 0 47.633 47.633L227.908 858.3a436.053 436.053 0 0 0 283.41 104.209 436.036 436.036 0 0 0 284.16-104.858l109.021 109.022c6.57 6.57 15.19 9.865 23.808 9.865s17.238-3.294 23.808-9.865a33.673 33.673 0 0 0 0-47.633L843.162 810.103zm-139.247-97.62a33.604 33.604 0 0 1-25.617 11.792 33.566 33.566 0 0 1-21.88-8.09L479.232 564.618a33.655 33.655 0 0 1-11.776-25.583V355.823a33.69 33.69 0 0 1 67.38 0v167.68l165.392 141.483c14.114 12.1 15.77 33.365 3.687 47.496z" fill="#fff" data-spm-anchor-id="a313x.7781069.0.i7" class="selected"/></svg>