<?xml version="1.0" standalone="no"?><!DOCTYPE svg PUBLIC "-//W3C//DTD SVG 1.1//EN" "http://www.w3.org/Graphics/SVG/1.1/DTD/svg11.dtd"><svg t="1583473919318" class="icon" viewBox="0 0 1024 1024" version="1.1" xmlns="http://www.w3.org/2000/svg" p-id="3428" width="64" height="64" xmlns:xlink="http://www.w3.org/1999/xlink"><defs><style type="text/css"></style></defs><path d="M751.3 957.4H274.7c-82.7 0-150-67.3-150-150V216.2c0-82.7 67.3-150 150-150h138.9c13.8 0 25 11.2 25 25s-11.2 25-25 25H274.7c-55.1 0-100 44.9-100 100v591.2c0 55.1 44.9 100 100 100h476.6c55.1 0 100-44.9 100-100v-390H653.6c-32.4 0-62.8-12.6-85.7-35.6-22.9-23-35.4-53.5-35.2-85.9l0.9-204.9c0-10 6-19 15.2-22.9 9.2-3.9 19.8-2 27 4.8l317.7 301.2 0.3 0.3 0.5 0.5c4.3 4.5 6.9 10.6 6.9 17.2v415c0.1 83-67.2 150.3-149.9 150.3z m-168-808.3l-0.6 147.1c-0.1 19 7.3 36.9 20.7 50.4 13.4 13.5 31.3 20.9 50.3 20.9h160L583.3 149.1z" p-id="3429"></path><path d="M701.4 598H324.6c-13.8 0-25-11.2-25-25s11.2-25 25-25h376.8c13.8 0 25 11.2 25 25s-11.2 25-25 25zM701.4 747.3H324.6c-13.8 0-25-11.2-25-25s11.2-25 25-25h376.8c13.8 0 25 11.2 25 25s-11.2 25-25 25z" p-id="3430"></path></svg>