<svg class="icon" viewBox="0 0 1024 1024" xmlns="http://www.w3.org/2000/svg" width="400" height="400"><path d="M549.333 421.333V110.545h33.94c2.424 0 4.363-2.424 2.909-4.363L514.909 4.364c-1.454-1.94-4.364-1.94-5.818 0l-71.273 101.818c-1.454 1.94.485 4.363 2.91 4.363h33.939v310.788c0 7.758 7.272 13.576 16.485 13.576h41.212c9.212 0 16.97-5.818 16.97-13.576z" fill="#fff"/><path d="M931.394 1024H220.12L0 746.182V92.606C0 41.697 41.697 0 92.606 0h180.849c11.151 0 20.848 9.212 20.848 20.848v34.425c0 11.151-9.212 20.848-20.848 20.848H92.606c-9.212 0-16.97 7.758-16.97 16.97V720l180.849 228.848h674.424c9.212 0 16.97-7.757 16.97-16.97V93.092c0-9.212-7.758-16.97-16.97-16.97H751.515c-11.151 0-20.848-9.212-20.848-20.848V20.848C730.667 9.697 739.879 0 751.515 0H930.91c51.394 0 92.606 41.697 92.606 92.606v838.788C1024 982.303 982.303 1024 931.394 1024z" fill="#fff"/><path d="M873.212 839.758h-589.09c-3.88 0-6.789-2.91-6.789-6.788v-39.273c0-3.879 2.91-6.788 6.788-6.788h589.576c3.879 0 6.788 2.91 6.788 6.788v39.273c-.485 3.878-3.394 6.788-7.273 6.788zm0-144H150.788c-3.879 0-6.788-2.91-6.788-6.788v-39.273c0-3.879 2.91-6.788 6.788-6.788h722.909c3.879 0 6.788 2.91 6.788 6.788v39.273c-.485 3.878-3.394 6.788-7.273 6.788zm0-143.516H150.788c-3.879 0-6.788-2.909-6.788-6.787v-39.273c0-3.879 2.91-6.788 6.788-6.788h722.909c3.879 0 6.788 2.909 6.788 6.788v39.273c-.485 3.393-3.394 6.787-7.273 6.787z" fill="#fff"/></svg>