<svg class="icon" viewBox="0 0 1024 1024" xmlns="http://www.w3.org/2000/svg" width="400" height="400"><path d="M400 1008c-6.4-8.8-17.6-16-25.6-16s-14.4-3.2-14.4-8c0-4-7.2-8-16-8s-16-3.2-16-8c0-4-7.2-8-16-8s-16-3.2-16-8c0-4-7.2-8-16-8s-16-3.2-16-8c0-4-5.6-8-12-8s-12-3.2-12-8c0-4-7.2-8-16-8s-16-3.2-16-8c0-4-6.4-8-14.4-8s-19.2-7.2-25.6-16-17.6-16-25.6-16-14.4-3.2-14.4-8c0-4-7.2-8-16-8s-16-3.2-16-8c0-4-7.2-8-16-8s-16-3.2-16-8c0-4-5.6-8-12-8-7.2 0-21.6-8.8-32-20L0 776.8V240h22.4c12.8 0 27.2-6.4 33.6-16 6.4-8.8 17.6-16 25.6-16s14.4-3.2 14.4-8c0-4 6.4-8 14.4-8s19.2-7.2 25.6-16 16.8-16 24-16 17.6-7.2 24-16c6.4-9.6 20.8-16 33.6-16 12 0 22.4-3.2 22.4-8 0-4 8-8 18.4-8 9.6 0 23.2-7.2 29.6-16s17.6-16 25.6-16 14.4-3.2 14.4-8c0-4 6.4-8 14.4-8s19.2-7.2 25.6-16 16.8-16 24-16 17.6-7.2 24-16 20.8-16 32-16 25.6 7.2 32 16 16.8 16 24 16 17.6 7.2 24 16 17.6 16 25.6 16 14.4 4 14.4 8c0 4.8 11.2 8 24 8 13.6 0 24-3.2 24-8 0-4 6.4-8 14.4-8s19.2-7.2 25.6-16 16.8-16 24-16 17.6-7.2 24-16c9.6-13.6 20.8-16 66.4-16 51.2 0 56.8 1.6 77.6 24 12 13.6 28 24 35.2 24s12.8 4 12.8 8c0 4.8 6.4 8 14.4 8s19.2 7.2 25.6 16 17.6 16 25.6 16 14.4 4 14.4 8c0 4.8 5.6 8 12.8 8 32 0 35.2 16.8 35.2 176s-3.2 176-35.2 176c-7.2 0-12.8 4-12.8 8 0 4.8-7.2 8-16 8s-16 4-16 8c0 4.8-5.6 8-12.8 8-31.2 0-35.2 18.4-35.2 152 0 126.4-.8 128.8-20 148-10.4 11.2-24.8 20-32 20-6.4 0-12 4-12 8 0 4.8-10.4 8-24 8-12.8 0-24 4-24 8 0 4.8-5.6 8-12 8s-12 4-12 8c0 4.8-7.2 8-16 8s-16 4-16 8c0 4.8-6.4 8-14.4 8s-19.2 7.2-25.6 16-16.8 16-24 16-17.6 7.2-24 16-17.6 16-25.6 16-14.4 4-14.4 8c0 4.8-10.4 8-22.4 8-12.8 0-27.2 6.4-33.6 16-6.4 8.8-17.6 16-25.6 16s-14.4 4-14.4 8c0 4.8-7.2 8-16 8s-16 4-16 8c0 4.8-13.6 8-30.4 8-20.8 0-33.6-4.8-41.6-16zm88-56c0-4 6.4-8 14.4-8s19.2-7.2 25.6-16 16.8-16 24-16 17.6-7.2 24-16 16.8-16 24-16 17.6-7.2 24-16c6.4-9.6 20.8-16 33.6-16 12 0 22.4-3.2 22.4-8 0-4 7.2-8 16-8s16-3.2 16-8c0-4 6.4-8 14.4-8s19.2-7.2 25.6-16 19.2-16 28-16 21.6-7.2 28-16 17.6-16 25.6-16c12.8 0 14.4-8.8 14.4-88 0-53.6-3.2-88-8-88-4 0-8 4-8 8 0 4.8-7.2 8-16 8s-16 4-16 8c0 4.8-8.8 8-20 8s-20 4-20 8c0 4.8-5.6 8-12.8 8S724 635.2 712 648c-12 13.6-28 24-35.2 24s-12.8 4-12.8 8c0 4.8-7.2 8-16 8-15.2 0-16-5.6-16-120 0-74.4-3.2-120-8-120-4 0-8 4-8 8 0 4.8-7.2 8-16 8s-16 4-16 8c0 4.8-7.2 8-16 8s-16 4-16 8c0 4.8-6.4 8-14.4 8s-19.2 7.2-25.6 16-17.6 16-25.6 16c-13.6 0-14.4 14.4-14.4 216 0 138.4 3.2 216 8 216s8-3.2 8-8zm-80-208c0-128 3.2-200 8-200s8-3.2 8-8c0-4-6.4-8-14.4-8s-19.2-7.2-25.6-16-17.6-16-25.6-16-14.4-3.2-14.4-8c0-4-10.4-8-22.4-8-12.8 0-27.2-6.4-33.6-16-6.4-8.8-20-16-29.6-16-10.4 0-18.4-3.2-18.4-8 0-4-6.4-8-14.4-8s-19.2-7.2-25.6-16-16.8-16-24-16-17.6-7.2-24-16-17.6-16-25.6-16-14.4-3.2-14.4-8c0-4-10.4-8-24-8-12.8 0-24-3.2-24-8 0-4-3.2-8-8-8s-8 74.4-8 208c0 194.4.8 208 14.4 208 8 0 19.2 7.2 25.6 16s16.8 16 24 16 17.6 7.2 24 16 17.6 16 25.6 16 14.4 4 14.4 8c0 4.8 7.2 8 16 8s16 4 16 8c0 4.8 7.2 8 16 8s16 4 16 8c0 4.8 8 8 18.4 8 9.6 0 23.2 7.2 29.6 16s17.6 16 25.6 16 14.4 4 14.4 8c0 4.8 6.4 8 14.4 8s19.2 7.2 25.6 16 17.6 16 25.6 16c13.6 0 14.4-13.6 14.4-200zm296-152c6.4-8.8 17.6-16 25.6-16s14.4-3.2 14.4-8c0-4-7.2-8-16-8s-16-3.2-16-8c0-4-7.2-8-16-8-13.6 0-16 5.6-16 32 0 35.2 6.4 40 24 16zm40-180.8c0-102.4-5.6-123.2-33.6-123.2-6.4 0-16-7.2-22.4-16s-17.6-16-25.6-16-14.4-3.2-14.4-8c0-4-9.6-8-20.8-8-12.8 0-29.6-9.6-43.2-24-12-12.8-24.8-24-27.2-24s-4.8 23.2-4.8 52c0 45.6 2.4 55.2 20 72 10.4 11.2 24 20 29.6 20 6.4 0 16 7.2 22.4 16 6.4 9.6 20.8 16 33.6 16 22.4 0 22.4 0 22.4 56 0 48 1.6 56 14.4 56 8 0 19.2 7.2 25.6 16s14.4 16 17.6 16 6.4-45.6 6.4-100.8zM464 480c6.4-8.8 17.6-16 25.6-16s14.4-3.2 14.4-8c0-4 6.4-8 14.4-8s19.2-7.2 25.6-16 16-16 22.4-16c10.4 0 33.6-18.4 33.6-27.2 0-2.4-7.2-4.8-16-4.8s-16-3.2-16-8c0-4-7.2-8-16-8s-16-3.2-16-8c0-4-7.2-8-16-8s-16-3.2-16-8c0-4-7.2-8-16-8s-16-3.2-16-8c0-4-5.6-8-12-8-16 0-52-36-52-52 0-6.4 7.2-12 16-12s16-3.2 16-8c0-4 7.2-8 16-8s16-3.2 16-8c0-4 7.2-8 16-8 14.4 0 16-5.6 16-48s1.6-48 16-48c8.8 0 16-3.2 16-8 0-4-7.2-8-16-8s-16-3.2-16-8c0-4-5.6-8-12.8-8s-20.8-8-29.6-17.6c-10.4-12.8-16.8-15.2-19.2-8-2.4 4.8-9.6 9.6-17.6 9.6-7.2 0-18.4 7.2-24.8 16s-17.6 16-25.6 16-14.4 4-14.4 8c0 4.8-10.4 8-22.4 8-12.8 0-27.2 6.4-33.6 16-6.4 8.8-17.6 16-25.6 16s-14.4 4-14.4 8c0 4.8-5.6 8-12 8s-12 4-12 8c0 4.8-6.4 8-14.4 8s-19.2 7.2-25.6 16-17.6 16-25.6 16-14.4 4-14.4 8c0 4.8-8.8 8-20 8s-29.6 8.8-40.8 20c-17.6 17.6-18.4 21.6-8 32 6.4 6.4 17.6 12 24 12 7.2 0 12.8 4 12.8 8 0 4.8 6.4 8 14.4 8s19.2 7.2 25.6 16 17.6 16 25.6 16 14.4 4 14.4 8c0 4.8 12 8 26.4 8 16.8 0 30.4 5.6 37.6 16 6.4 8.8 16.8 16 24 16s17.6 7.2 24 16 17.6 16 25.6 16 14.4 4 14.4 8c0 4.8 6.4 8 14.4 8s19.2 7.2 25.6 16 17.6 16 25.6 16 14.4 4 14.4 8c0 12.8 12 8.8 24-8zm368 8c0-4 7.2-8 16-8s16-3.2 16-8c0-4 6.4-8 14.4-8s19.2-7.2 25.6-16 17.6-16 25.6-16 14.4-3.2 14.4-8c0-4 7.2-8 16-8 15.2 0 16-5.6 16-104 0-64-3.2-104-8-104-4 0-8 4-8 8 0 4.8-7.2 8-16 8s-16 4-16 8c0 4.8-10.4 8-22.4 8-12.8 0-27.2 6.4-33.6 16-6.4 8.8-16 16-22.4 16-5.6 0-19.2 8.8-29.6 20-19.2 18.4-20 24-20 112 0 86.4.8 92 16 92 8.8 0 16-3.2 16-8zm-16-256c0-4 6.4-8 14.4-8s19.2-7.2 25.6-16 17.6-16 25.6-16 14.4-3.2 14.4-8c0-4 5.6-8 12.8-8 6.4 0 17.6-5.6 24-12 11.2-10.4 11.2-13.6 0-24-6.4-6.4-17.6-12-24-12-7.2 0-12.8-3.2-12.8-8 0-4-7.2-8-16-8s-16-3.2-16-8c0-4-6.4-8-14.4-8s-19.2-7.2-25.6-16-17.6-16-25.6-16-14.4-3.2-14.4-8c0-16.8-34.4-7.2-56 16-12 13.6-28 24-35.2 24s-12.8 4-12.8 8c0 4.8-10.4 8-22.4 8-12.8 0-27.2 6.4-33.6 16-6.4 8.8-17.6 16-25.6 16s-14.4 4-14.4 8c0 4.8 7.2 8 16 8s16 4 16 8c0 4.8 6.4 8 14.4 8s19.2 7.2 25.6 16 17.6 16 25.6 16 14.4 4 14.4 8c0 4.8 7.2 8 16 8s16 4 16 8c0 4.8 20 8 44 8s44-3.2 44-8z" fill="#fff"/></svg>