<svg class="icon" viewBox="0 0 1024 1024" xmlns="http://www.w3.org/2000/svg" width="400" height="400"><path d="M513.523 718.498c-114.368 0-207.48-93.075-207.48-207.481s93.074-207.48 207.48-207.48 207.48 93.074 207.48 207.48-93.074 207.48-207.48 207.48zm0-369.973A162.505 162.505 0 1 0 676.027 511.03a162.685 162.685 0 0 0-162.504-162.505z" fill="#fff"/><path d="M610.337 1024h-196.61a26.793 26.793 0 0 1-26.767-26.767v-64.406a44.629 44.629 0 0 0-27.55-41.789c-3.02-1.285-6.092-2.57-9.124-3.855a44.719 44.719 0 0 0-49.345 9.612l-43.1 42.496a26.793 26.793 0 0 1-37.844-.27L81.92 798.953a26.793 26.793 0 0 1 .27-37.844l42.92-42.316a44.976 44.976 0 0 0 10.112-49.64q-.86-2.057-1.696-4.125a44.976 44.976 0 0 0-41.943-27.976H26.793A26.793 26.793 0 0 1 .026 610.285V413.676a26.793 26.793 0 0 1 26.767-26.767h63.969a44.976 44.976 0 0 0 42.058-28.27 356.247 356.247 0 0 1 5.423-12.85 45.092 45.092 0 0 0-9.265-50.117l-43.202-43.82a26.767 26.767 0 0 1 .27-37.843L226.112 75.932a26.767 26.767 0 0 1 37.845.27l44.757 45.4a44.847 44.847 0 0 0 49.152 10.036l.861-.347a45.233 45.233 0 0 0 28.27-42.046V26.767A26.793 26.793 0 0 1 413.767 0h196.61a26.793 26.793 0 0 1 26.766 26.767v61.309a45.117 45.117 0 0 0 28.464 42.136c3.79 1.516 7.607 3.11 11.347 4.729a45.092 45.092 0 0 0 49.859-9.317L773.24 79.84a26.587 26.587 0 0 1 18.787-7.71h.193a26.587 26.587 0 0 1 18.864 7.967L949.16 220.164a26.793 26.793 0 0 1-.27 37.844l-46.595 45.94a44.976 44.976 0 0 0-10.19 49.447q1.143 2.738 2.236 5.475a44.86 44.86 0 0 0 41.994 28.103h60.924a26.793 26.793 0 0 1 26.715 26.703v196.61a26.793 26.793 0 0 1-26.767 26.766h-61.681a44.758 44.758 0 0 0-41.866 27.757q-1.517 3.765-3.11 7.479a44.822 44.822 0 0 0 9.65 49.23l45.054 45.695a26.793 26.793 0 0 1-.27 37.844L804.916 943.133a26.793 26.793 0 0 1-37.844-.27l-43.691-44.295a45.259 45.259 0 0 0-49.487-10.19c-2.968 1.285-6 2.57-8.995 3.701-16.705 6.618-27.86 23.465-27.86 41.918v63.197A26.793 26.793 0 0 1 610.338 1024zm-178.452-44.976h160.23v-44.976c0-37.266 22.077-70.137 56.233-83.72a327.72 327.72 0 0 0 8.006-3.29 89.412 89.412 0 0 1 99.114 19.996l30.84 31.316 114.137-112.504-32.267-32.73a89.63 89.63 0 0 1-18.967-98.484q1.413-3.316 2.775-6.657a89.54 89.54 0 0 1 83.527-55.86h43.485v-160.23h-42.714a89.618 89.618 0 0 1-83.758-56.374q-.977-2.455-1.992-4.883a89.708 89.708 0 0 1 20.162-98.793l33.617-33.154-112.505-114.098-33.41 33a89.875 89.875 0 0 1-99.372 18.543 363.924 363.924 0 0 0-10.1-4.215 89.862 89.862 0 0 1-56.811-83.835v-43.1h-160.23v44.256a90.029 90.029 0 0 1-56.194 83.656l-.81.334a89.656 89.656 0 0 1-98.253-20.072l-31.972-32.435L130.56 233.284l30.416 30.84a89.823 89.823 0 0 1 18.402 99.822 343.085 343.085 0 0 0-4.819 11.462 89.76 89.76 0 0 1-83.81 56.541H44.977v160.166H91.52a89.746 89.746 0 0 1 83.616 56.04q.746 1.838 1.517 3.675a89.798 89.798 0 0 1-20.072 99.037l-29.942 29.556 112.505 114.098 30.12-29.71a89.476 89.476 0 0 1 98.845-18.839 389.983 389.983 0 0 0 8.109 3.406c33.783 13.71 55.603 46.466 55.603 83.462z" fill="#fff"/></svg>