<?xml version="1.0" standalone="no"?><!DOCTYPE svg PUBLIC "-//W3C//DTD SVG 1.1//EN" "http://www.w3.org/Graphics/SVG/1.1/DTD/svg11.dtd"><svg t="1583825430756" class="icon" viewBox="0 0 1024 1024" version="1.1" xmlns="http://www.w3.org/2000/svg" p-id="6836" width="128" height="128" xmlns:xlink="http://www.w3.org/1999/xlink"><defs><style type="text/css"></style></defs><path d="M512 1024c-277.942857 0-512-226.742857-512-512s226.742857-512 512-512 512 226.742857 512 512-234.057143 512-512 512zM512 109.714286C292.571429 109.714286 109.714286 292.571429 109.714286 512S292.571429 914.285714 512 914.285714 914.285714 731.428571 914.285714 512 731.428571 109.714286 512 109.714286z" fill="#ffffff" p-id="6837"></path><path d="M336.457143 424.228571m-51.2 0a51.2 51.2 0 1 0 102.4 0 51.2 51.2 0 1 0-102.4 0Z" fill="#ffffff" p-id="6838"></path><path d="M687.542857 424.228571m-51.2 0a51.2 51.2 0 1 0 102.4 0 51.2 51.2 0 1 0-102.4 0Z" fill="#ffffff" p-id="6839"></path><path d="M512 709.485714c-95.085714 0-175.542857-80.457143-175.542857-175.542857H438.857143c0 43.885714 36.571429 73.142857 73.142857 73.142857s73.142857-36.571429 73.142857-73.142857h102.4c0 95.085714-80.457143 175.542857-175.542857 175.542857z" fill="#ffffff" p-id="6840"></path></svg>